<?xml version="1.0" standalone="no"?>
<!DOCTYPE svg PUBLIC "-//W3C//DTD SVG 20010904//EN"
 "http://www.w3.org/TR/2001/REC-SVG-20010904/DTD/svg10.dtd">
<svg version="1.0" xmlns="http://www.w3.org/2000/svg"
 width="512.000000pt" height="512.000000pt" viewBox="0 0 512.000000 512.000000"
 preserveAspectRatio="xMidYMid meet">

<g transform="translate(0.000000,512.000000) scale(0.100000,-0.100000)"
fill="#000000" stroke="none">
<path d="M936 4060 c-16 -5 -40 -19 -53 -32 -56 -52 -53 37 -53 -1471 l0
-1394 23 -33 c12 -18 35 -43 50 -54 27 -20 41 -21 260 -21 215 0 234 1 267 20
19 12 43 36 55 55 19 34 20 52 23 658 l3 622 1049 0 1049 0 3 -622 c3 -606 4
-624 23 -658 12 -19 36 -43 55 -55 33 -19 52 -20 267 -20 219 0 233 1 260 21
15 11 38 36 51 54 l22 33 0 1397 0 1397 -22 33 c-13 18 -36 43 -51 54 -27 20
-41 21 -260 21 -215 0 -234 -1 -267 -20 -19 -12 -43 -36 -55 -55 -19 -34 -20
-52 -23 -657 l-3 -623 -1049 0 -1049 0 -3 623 c-3 605 -4 623 -23 657 -41 69
-64 75 -305 77 -118 1 -228 -2 -244 -7z"/>
<path d="M84 3520 c-25 -13 -49 -35 -62 -59 l-22 -39 0 -862 0 -862 22 -39
c39 -70 73 -79 306 -79 l202 0 0 980 0 980 -202 0 c-183 0 -207 -2 -244 -20z"/>
<path d="M4590 2560 l0 -980 202 0 c233 0 267 9 306 79 l22 39 0 862 0 862
-22 39 c-39 70 -73 79 -306 79 l-202 0 0 -980z"/>
</g>
</svg>
