<?xml version="1.0" standalone="no"?>
<!DOCTYPE svg PUBLIC "-//W3C//DTD SVG 20010904//EN"
 "http://www.w3.org/TR/2001/REC-SVG-20010904/DTD/svg10.dtd">
<svg version="1.0" xmlns="http://www.w3.org/2000/svg"
 width="512.000000pt" height="512.000000pt" viewBox="0 0 512.000000 512.000000"
 preserveAspectRatio="xMidYMid meet">

<g transform="translate(0.000000,512.000000) scale(0.100000,-0.100000)"
fill="#000000" stroke="none">
<path d="M615 3951 c-91 -42 -134 -115 -135 -223 l0 -68 -149 0 c-82 0 -162
-5 -178 -11 -56 -21 -102 -61 -128 -112 l-25 -51 0 -927 0 -927 28 -53 c20
-39 41 -62 77 -84 48 -30 50 -30 211 -33 l162 -3 3 -78 c5 -103 39 -162 118
-203 l53 -28 407 0 c448 0 449 1 515 66 66 66 66 64 66 537 l0 427 245 0 c267
0 290 4 313 55 16 34 15 60 -2 94 -25 47 -47 51 -311 51 l-245 0 0 180 0 180
920 0 920 0 0 -180 0 -180 -251 0 -251 0 -34 -34 c-46 -46 -46 -86 0 -132 l34
-34 251 0 251 0 0 -429 0 -429 28 -53 c20 -39 41 -62 77 -84 l48 -30 411 -3
c455 -3 461 -2 526 61 49 47 70 101 70 180 l0 67 153 0 c126 0 159 4 192 19
51 23 93 65 116 116 18 38 19 89 19 966 l0 927 -28 53 c-20 39 -41 62 -77 84
-48 30 -50 30 -211 33 l-162 3 -3 78 c-5 103 -39 162 -118 203 l-53 28 -403 0
c-259 0 -414 -4 -432 -11 -56 -21 -102 -61 -128 -112 l-25 -51 0 -428 0 -428
-920 0 -920 0 0 429 0 429 -28 53 c-20 39 -41 62 -77 84 l-48 30 -416 2 c-388
3 -419 2 -456 -16z m820 -1391 l0 -1205 -375 0 -375 0 -3 1195 c-1 657 0 1201
3 1208 3 10 84 12 377 10 l373 -3 0 -1205z m3000 0 l0 -1205 -375 0 -375 0 -3
1195 c-1 657 0 1201 3 1208 3 10 84 12 377 10 l373 -3 0 -1205z m-3960 0 l0
-895 -135 0 -135 0 -3 885 c-1 487 0 891 3 898 3 9 37 12 137 10 l133 -3 0
-895z m4440 0 l0 -895 -135 0 -135 0 -3 885 c-1 487 0 891 3 898 3 9 37 12
137 10 l133 -3 0 -895z"/>
<path d="M2511 2366 c-87 -48 -50 -186 49 -186 51 0 100 49 100 99 0 75 -83
124 -149 87z"/>
</g>
</svg>
