<?xml version="1.0" standalone="no"?>
<!DOCTYPE svg PUBLIC "-//W3C//DTD SVG 20010904//EN"
 "http://www.w3.org/TR/2001/REC-SVG-20010904/DTD/svg10.dtd">
<svg version="1.0" xmlns="http://www.w3.org/2000/svg"
 width="512.000000pt" height="512.000000pt" viewBox="0 0 512.000000 512.000000"
 preserveAspectRatio="xMidYMid meet">

<g transform="translate(0.000000,512.000000) scale(0.100000,-0.100000)"
fill="#000000" stroke="none">
<path d="M2424 5105 c-77 -34 -285 -258 -399 -430 -71 -106 -178 -312 -190
-365 -9 -38 27 -80 69 -80 42 0 54 15 108 130 94 202 214 366 391 537 64 61
119 122 122 135 7 27 -23 73 -53 80 -11 3 -32 0 -48 -7z"/>
<path d="M1965 5058 c-106 -95 -210 -241 -261 -367 -27 -65 -18 -103 27 -121
48 -20 73 -2 119 90 56 113 91 161 192 267 49 51 88 100 88 111 0 35 -38 72
-74 72 -25 0 -46 -12 -91 -52z"/>
<path d="M3510 5038 c-576 -44 -1067 -423 -1248 -964 -69 -204 -66 -158 -69
-1032 l-4 -792 25 -25 25 -25 578 -2 c909 -4 926 -4 1038 16 304 55 571 199
782 420 234 244 365 537 392 876 50 617 -311 1199 -885 1429 -211 85 -410 116
-634 99z m302 -767 l33 -29 5 -189 5 -188 186 -5 c257 -7 248 1 249 -238 0
-100 -4 -181 -10 -192 -21 -39 -49 -45 -240 -50 l-185 -5 -5 -185 c-6 -204
-10 -223 -65 -246 -41 -17 -280 -19 -338 -3 -65 18 -71 38 -77 249 l-5 185
-185 5 c-262 7 -255 0 -255 246 0 230 -3 227 255 234 l185 5 5 188 5 189 33
29 32 29 170 0 170 0 32 -29z"/>
<path d="M625 3974 c-159 -103 -216 -148 -300 -235 -144 -151 -223 -290 -281
-498 -71 -253 -49 -499 70 -790 207 -505 507 -1028 861 -1500 213 -284 500
-608 619 -700 208 -160 441 -241 701 -243 186 -1 332 30 505 108 l60 27 48
-25 c138 -73 254 -101 412 -101 187 1 355 53 499 154 128 89 199 200 321 499
81 198 112 257 171 324 54 61 111 100 190 127 86 30 304 33 457 6 95 -17 105
-18 127 -3 44 29 45 93 2 120 -72 46 -445 67 -581 33 -121 -31 -193 -71 -281
-161 -94 -95 -132 -163 -230 -406 -129 -323 -210 -420 -413 -496 -180 -68
-346 -69 -525 -3 l-58 22 66 44 c36 24 65 46 65 49 0 3 -12 16 -27 28 -305
237 -534 580 -626 936 -13 50 -27 93 -30 96 -3 4 -74 -38 -158 -91 -84 -54
-172 -104 -197 -111 -61 -19 -167 -17 -220 4 -107 42 -360 256 -485 409 -179
221 -304 489 -363 783 -50 243 -6 330 246 490 63 40 125 81 137 92 l22 20 -47
38 c-301 238 -524 580 -616 943 l-22 88 -119 -77z"/>
<path d="M5018 2536 c-14 -6 -55 -45 -91 -86 -133 -153 -333 -303 -537 -403
-150 -73 -160 -80 -160 -123 0 -44 42 -78 85 -70 87 18 361 176 506 294 103
83 285 274 293 308 14 53 -46 102 -96 80z"/>
<path d="M5013 2137 c-12 -7 -39 -32 -60 -56 -56 -66 -168 -151 -263 -200 -47
-24 -93 -51 -102 -59 -28 -24 -23 -76 8 -101 34 -27 42 -27 118 8 125 56 256
153 349 257 58 65 66 93 35 127 -29 32 -57 40 -85 24z"/>
</g>
</svg>
