<?xml version="1.0" standalone="no"?>
<!DOCTYPE svg PUBLIC "-//W3C//DTD SVG 20010904//EN"
 "http://www.w3.org/TR/2001/REC-SVG-20010904/DTD/svg10.dtd">
<svg version="1.0" xmlns="http://www.w3.org/2000/svg"
 width="320.000000pt" height="320.000000pt" viewBox="0 0 320.000000 320.000000"
 preserveAspectRatio="xMidYMid meet">

<g transform="translate(0.000000,320.000000) scale(0.100000,-0.100000)"
fill="#000000" stroke="none">
<path d="M1110 3164 c-14 -2 -59 -9 -100 -15 -345 -51 -677 -293 -842 -614
-96 -188 -131 -334 -132 -545 0 -256 76 -490 224 -689 343 -462 957 -613 1464
-360 l80 40 450 -450 c502 -501 494 -495 621 -495 167 0 290 122 289 289 0
127 6 119 -495 621 l-450 450 40 80 c81 161 121 332 121 514 0 561 -392 1041
-942 1154 -76 16 -281 28 -328 20z m315 -314 c274 -69 505 -273 606 -533 123
-320 56 -675 -175 -924 -112 -121 -255 -210 -408 -254 -101 -29 -295 -37 -403
-16 -278 52 -510 230 -632 482 -129 270 -120 570 28 832 60 107 215 262 322
322 90 50 218 96 309 110 90 14 260 5 353 -19z"/>
</g>
</svg>
