<?xml version="1.0" standalone="no"?>
<!DOCTYPE svg PUBLIC "-//W3C//DTD SVG 20010904//EN"
 "http://www.w3.org/TR/2001/REC-SVG-20010904/DTD/svg10.dtd">
<svg version="1.0" xmlns="http://www.w3.org/2000/svg"
 width="700.000000pt" height="700.000000pt" viewBox="0 0 700.000000 700.000000"
 preserveAspectRatio="xMidYMid meet">

<g transform="translate(0.000000,700.000000) scale(0.100000,-0.100000)"
fill="#000000" stroke="none">
<path d="M3409 6535 c-141 -28 -271 -97 -357 -190 -103 -111 -152 -260 -152
-462 0 -168 40 -289 120 -368 l41 -40 -8 45 c-15 87 -8 201 16 257 29 67 44
78 186 152 131 68 210 123 251 174 l26 33 52 -54 c43 -46 75 -66 202 -128 116
-56 159 -82 183 -111 45 -54 64 -101 69 -165 2 -32 7 -58 11 -58 22 1 110 154
111 193 0 9 4 17 9 17 10 0 25 -36 39 -90 9 -35 9 -35 17 23 9 69 4 100 -30
171 -14 29 -25 65 -25 80 0 40 -36 141 -83 231 -75 143 -196 244 -346 289 -67
20 -236 20 -332 1z"/>
<path d="M3180 5820 c-18 -6 -6 -8 43 -9 41 -1 90 -9 125 -22 85 -31 92 -32
92 -20 0 7 -24 23 -52 36 -55 26 -153 33 -208 15z"/>
<path d="M3694 5817 c-41 -16 -81 -43 -73 -51 3 -3 36 5 73 19 46 17 88 25
139 26 54 1 65 3 42 9 -46 12 -146 10 -181 -3z"/>
<path d="M3178 5701 c-35 -13 -45 -20 -38 -31 8 -12 16 -12 57 1 l48 16 0 -31
c0 -56 85 -63 93 -7 5 30 16 26 52 -16 27 -33 31 -34 25 -13 -28 93 -119 124
-237 81z"/>
<path d="M3718 5705 c-25 -14 -68 -72 -68 -91 0 -5 10 4 23 20 l23 28 17 -26
c31 -47 104 -23 94 31 -5 27 0 28 53 7 38 -16 70 -14 70 4 0 14 -93 42 -140
42 -25 -1 -57 -7 -72 -15z"/>
<path d="M3082 5250 c-102 -80 -184 -220 -201 -345 -11 -78 -4 -153 29 -286
27 -109 38 -329 20 -435 -21 -134 -73 -267 -135 -349 -40 -51 -40 -51 75 -64
164 -17 274 20 379 127 117 119 165 240 164 412 -1 116 -15 191 -66 355 -37
117 -57 244 -57 363 l0 73 -53 57 c-30 31 -65 74 -79 95 l-25 38 -51 -41z"/>
<path d="M5030 2304 c-193 -120 -305 -174 -357 -174 -62 0 -135 27 -181 66
-24 20 -44 35 -46 33 -1 -2 -18 -44 -36 -93 -19 -50 -59 -128 -88 -175 -30
-48 -110 -198 -179 -335 -142 -284 -178 -362 -160 -349 6 5 41 31 77 58 128
96 267 223 579 529 174 171 369 362 435 424 65 61 117 112 115 112 -2 0 -74
-44 -159 -96z"/>
<path d="M2492 2240 c-16 -21 -43 -36 -89 -50 -106 -33 -136 -28 -243 38 -53
33 -51 30 60 -84 64 -66 191 -202 284 -304 267 -293 478 -487 621 -571 l40
-24 -16 25 c-9 14 -69 115 -134 225 -102 174 -128 210 -199 280 -45 44 -103
110 -129 147 -53 74 -126 216 -152 296 -9 28 -17 52 -18 51 -1 0 -12 -13 -25
-29z"/>
<path d="M3497 2009 c-28 -16 -58 -87 -59 -138 0 -25 3 -85 7 -132 5 -61 4
-92 -5 -108 -17 -32 3 -52 28 -28 17 18 20 80 11 242 -2 42 2 69 14 90 l16 30
1 -56 c0 -60 24 -212 41 -269 14 -44 26 -57 39 -44 7 7 4 37 -10 95 -11 46
-23 122 -26 169 -3 47 -7 101 -8 120 -3 37 -19 47 -49 29z"/>
<path d="M5805 1854 c-34 -26 -271 -166 -435 -256 -85 -47 -326 -172 -535
-277 -209 -104 -375 -190 -368 -191 45 -1 261 46 364 80 280 92 551 253 819
486 123 107 230 216 155 158z"/>
<path d="M1310 1825 c23 -27 240 -200 360 -285 332 -237 666 -385 935 -413 49
-5 49 -5 -65 52 -588 293 -860 436 -1109 582 -74 44 -128 72 -121 64z"/>
<path d="M3755 1564 c-53 -14 -270 -35 -301 -29 -49 10 -174 14 -174 6 0 -5
23 -74 51 -154 l50 -144 72 1 c40 0 92 -1 117 -2 98 -7 137 -1 160 23 14 14
34 70 56 151 19 71 37 137 40 147 6 20 -2 20 -71 1z"/>
</g>
</svg>
