<?xml version="1.0" standalone="no"?>
<!DOCTYPE svg PUBLIC "-//W3C//DTD SVG 20010904//EN"
 "http://www.w3.org/TR/2001/REC-SVG-20010904/DTD/svg10.dtd">
<svg version="1.0" xmlns="http://www.w3.org/2000/svg"
 width="225.000000pt" height="224.000000pt" viewBox="0 0 225.000000 224.000000"
 preserveAspectRatio="xMidYMid meet">

<g transform="translate(0.000000,224.000000) scale(0.100000,-0.100000)"
fill="#000000" stroke="none">
<path d="M1412 1828 c2 -12 10 -23 18 -23 22 0 19 39 -3 43 -15 3 -18 -1 -15
-20z"/>
<path d="M1577 1836 c-6 -16 16 -40 26 -29 4 3 7 15 7 25 0 21 -25 24 -33 4z"/>
<path d="M500 1795 c-14 -16 -5 -35 16 -35 15 0 20 35 5 44 -5 3 -14 -1 -21
-9z"/>
<path d="M656 1803 c-12 -12 -6 -43 9 -43 8 0 15 9 15 19 0 21 -13 34 -24 24z"/>
<path d="M660 1523 c1 -13 30 -48 30 -36 0 7 -5 15 -10 18 -6 4 -8 11 -5 16 4
5 1 9 -4 9 -6 0 -11 -3 -11 -7z"/>
<path d="M520 1505 c0 -8 4 -15 10 -15 5 0 7 7 4 15 -4 8 -8 15 -10 15 -2 0
-4 -7 -4 -15z"/>
<path d="M568 1453 c7 -3 16 -2 19 1 4 3 -2 6 -13 5 -11 0 -14 -3 -6 -6z"/>
<path d="M701 1444 c0 -11 3 -14 6 -6 3 7 2 16 -1 19 -3 4 -6 -2 -5 -13z"/>
<path d="M522 1428 c-14 -14 -16 -28 -3 -28 9 0 24 30 18 36 -2 2 -9 -2 -15
-8z"/>
<path d="M680 1390 c0 -5 5 -10 10 -10 6 0 10 5 10 10 0 6 -4 10 -10 10 -5 0
-10 -4 -10 -10z"/>
<path d="M495 1189 c-4 -6 -5 -12 -2 -15 2 -3 7 2 10 11 7 17 1 20 -8 4z"/>
<path d="M680 1154 c0 -13 18 -39 24 -34 2 3 -2 14 -10 24 -8 11 -14 16 -14
10z"/>
<path d="M500 1135 c0 -8 2 -15 4 -15 2 0 6 7 10 15 3 8 1 15 -4 15 -6 0 -10
-7 -10 -15z"/>
<path d="M452 1065 c-4 -5 -8 -58 -10 -116 -4 -105 5 -180 47 -384 l18 -90 57
-3 57 -3 -6 48 c-9 76 -25 332 -25 401 0 70 16 82 52 37 11 -14 24 -23 29 -19
5 3 8 0 7 -8 -2 -7 3 -12 9 -11 7 2 12 -3 10 -10 -1 -6 4 -11 11 -9 8 1 11 -1
8 -6 -6 -11 87 -105 97 -97 4 3 5 2 2 -2 -3 -3 2 -17 10 -30 9 -13 13 -28 10
-33 -3 -5 -3 -27 1 -49 l7 -41 57 0 c63 0 90 18 89 61 0 34 -43 115 -58 111
-7 -1 -10 2 -6 7 6 11 -51 96 -65 96 -5 0 -15 7 -22 15 -11 12 -11 12 5 1 9
-7 17 -10 17 -6 0 7 -72 96 -107 133 -15 16 -291 22 -301 7z m429 -182 c13
-16 12 -17 -3 -4 -10 7 -18 15 -18 17 0 8 8 3 21 -13z m-87 -49 c9 -24 2 -26
-12 -4 -7 11 -8 20 -3 20 5 0 12 -7 15 -16z m181 -104 c3 -5 1 -10 -4 -10 -6
0 -11 5 -11 10 0 6 2 10 4 10 3 0 8 -4 11 -10z"/>
<path d="M1374 945 c3 -38 8 -130 12 -203 l7 -133 73 3 73 3 -5 160 -5 160
108 -112 c76 -79 116 -113 131 -113 28 0 71 22 94 46 15 18 11 25 -84 138
l-100 120 -155 0 -155 1 6 -70z"/>
</g>
</svg>
