<?xml version="1.0" standalone="no"?>
<!DOCTYPE svg PUBLIC "-//W3C//DTD SVG 20010904//EN"
 "http://www.w3.org/TR/2001/REC-SVG-20010904/DTD/svg10.dtd">
<svg version="1.0" xmlns="http://www.w3.org/2000/svg"
 width="216.000000pt" height="233.000000pt" viewBox="0 0 216.000000 233.000000"
 preserveAspectRatio="xMidYMid meet">

<g transform="translate(0.000000,233.000000) scale(0.100000,-0.100000)"
fill="#000000" stroke="none">
<path d="M1103 2225 c-32 -14 -34 -17 -47 -112 -5 -33 22 -29 30 5 3 15 7 31
8 37 3 13 89 6 98 -8 4 -7 8 -21 8 -33 0 -11 6 -21 13 -21 10 0 11 14 5 64 -4
35 -10 68 -13 73 -9 14 -65 11 -102 -5z"/>
<path d="M1091 2002 c14 -23 50 -38 68 -28 5 3 11 0 13 -6 3 -7 7 0 10 15 5
26 4 27 -12 12 -23 -21 -39 -19 -68 8 l-25 22 14 -23z"/>
<path d="M1180 1942 c0 -23 -39 -34 -68 -20 -19 10 -38 11 -65 5 -32 -8 -37
-12 -31 -29 3 -12 3 -63 -1 -114 l-7 -93 -31 -4 c-18 -2 5 -5 51 -5 77 -2 83
0 92 21 9 22 9 22 9 -4 1 -23 -5 -27 -53 -39 l-53 -13 -6 -82 -6 -83 -109
-147 c-61 -81 -118 -162 -128 -181 -18 -33 -18 -34 1 -53 14 -13 37 -20 72
-22 49 -3 53 -1 86 38 19 23 66 69 106 103 82 71 84 69 79 -39 -1 -39 1 -71 5
-71 5 0 8 -26 7 -57 -3 -102 2 -319 7 -301 3 13 14 16 46 15 l42 -2 0 110 c0
66 8 148 19 205 20 101 27 319 15 480 l-7 85 -56 14 c-53 14 -56 17 -55 45 1
30 1 30 8 6 7 -24 11 -25 94 -28 48 -1 87 1 87 6 0 4 -16 6 -35 4 -33 -4 -35
-3 -34 24 1 32 16 87 18 65 1 -8 3 -12 6 -9 8 8 -6 39 -15 33 -14 -9 -22 33
-15 75 6 37 5 40 -22 46 -15 4 -34 11 -40 17 -9 6 -13 6 -13 -1z"/>
<path d="M1326 1877 c3 -10 9 -15 12 -12 3 3 0 11 -7 18 -10 9 -11 8 -5 -6z"/>
<path d="M995 1800 c-3 -5 -1 -10 4 -10 6 0 11 5 11 10 0 6 -2 10 -4 10 -3 0
-8 -4 -11 -10z"/>
<path d="M1392 1650 c0 -14 2 -19 5 -12 2 6 2 18 0 25 -3 6 -5 1 -5 -13z"/>
<path d="M978 1633 c7 -3 16 -2 19 1 4 3 -2 6 -13 5 -11 0 -14 -3 -6 -6z"/>
<path d="M1278 1633 c7 -3 16 -2 19 1 4 3 -2 6 -13 5 -11 0 -14 -3 -6 -6z"/>
<path d="M908 1623 c7 -3 16 -2 19 1 4 3 -2 6 -13 5 -11 0 -14 -3 -6 -6z"/>
<path d="M1211 734 c0 -11 3 -14 6 -6 3 7 2 16 -1 19 -3 4 -6 -2 -5 -13z"/>
<path d="M1142 665 c0 -16 2 -22 5 -12 2 9 2 23 0 30 -3 6 -5 -1 -5 -18z"/>
<path d="M1201 674 c0 -11 3 -14 6 -6 3 7 2 16 -1 19 -3 4 -6 -2 -5 -13z"/>
<path d="M1180 561 c0 -6 4 -13 10 -16 6 -3 7 1 4 9 -7 18 -14 21 -14 7z"/>
<path d="M1265 500 c-3 -5 -1 -10 4 -10 6 0 11 5 11 10 0 6 -2 10 -4 10 -3 0
-8 -4 -11 -10z"/>
<path d="M0 85 l0 -85 1080 0 1080 0 0 85 0 85 -1080 0 -1080 0 0 -85z m218
13 c14 5 15 4 2 -10 -9 -10 -17 -12 -21 -6 -4 6 -9 5 -12 -3 -3 -8 -4 -4 -4 8
1 14 5 19 10 14 5 -5 17 -7 25 -3z m78 3 c-18 -7 -18 -8 -3 -14 9 -3 17 -11
17 -16 0 -14 -29 -21 -36 -9 -4 6 -3 8 4 4 6 -3 13 -2 16 3 3 5 -1 11 -9 15
-23 8 -18 26 8 25 20 0 20 -1 3 -8z m31 -28 c-3 -10 -5 -4 -5 12 0 17 2 24 5
18 2 -7 2 -21 0 -30z m112 21 c4 3 7 -3 7 -13 0 -10 -6 -18 -13 -18 -8 0 -13
11 -12 26 0 14 3 20 6 13 2 -6 8 -10 12 -8z m-41 -5 c-9 -6 -8 -12 3 -25 13
-16 12 -16 -8 -6 -14 8 -24 9 -28 2 -9 -15 -25 -2 -25 20 0 14 7 18 35 17 19
-1 29 -4 23 -8z m1313 -13 c5 3 9 0 9 -6 0 -15 -23 -7 -26 8 -1 7 0 8 3 2 2
-5 9 -8 14 -4z m235 -13 c-10 -10 -19 5 -10 18 6 11 8 11 12 0 2 -7 1 -15 -2
-18z m47 19 c4 8 6 7 6 -4 1 -23 -25 -23 -33 -2 -5 14 -4 15 8 5 11 -9 15 -9
19 1z m67 4 c0 -3 -4 -8 -10 -11 -5 -3 -10 -1 -10 4 0 6 5 11 10 11 6 0 10 -2
10 -4z m-1936 -22 c3 -8 2 -12 -4 -9 -6 3 -10 10 -10 16 0 14 7 11 14 -7z
m126 12 c0 -2 -8 -10 -17 -17 -16 -13 -17 -12 -4 4 13 16 21 21 21 13z m1370
-4 c0 -5 -7 -9 -15 -9 -8 0 -15 4 -15 9 0 4 7 8 15 8 8 0 15 -4 15 -8z m54 -4
c-3 -4 -9 -8 -15 -8 -5 0 -9 4 -9 8 0 5 7 9 15 9 8 0 12 -4 9 -9z m116 2 c0
-5 -4 -10 -10 -10 -5 0 -10 5 -10 10 0 6 5 10 10 10 6 0 10 -4 10 -10z m80 0
c-19 -13 -30 -13 -30 0 0 6 10 10 23 10 18 0 19 -2 7 -10z m155 0 c3 -5 1 -10
-4 -10 -6 0 -11 5 -11 10 0 6 2 10 4 10 3 0 8 -4 11 -10z"/>
<path d="M350 74 c0 -8 5 -12 10 -9 6 3 10 10 10 16 0 5 -4 9 -10 9 -5 0 -10
-7 -10 -16z"/>
</g>
</svg>
