<?xml version="1.0" standalone="no"?>
<!DOCTYPE svg PUBLIC "-//W3C//DTD SVG 20010904//EN"
 "http://www.w3.org/TR/2001/REC-SVG-20010904/DTD/svg10.dtd">
<svg version="1.0" xmlns="http://www.w3.org/2000/svg"
 width="1000.000000pt" height="1080.000000pt" viewBox="0 0 1000.000000 1080.000000"
 preserveAspectRatio="xMidYMid meet">

<g transform="translate(0.000000,1080.000000) scale(0.100000,-0.100000)"
fill="#000000" stroke="none">
<path d="M4995 8691 c-27 -4 -59 -12 -70 -17 -11 -6 -35 -14 -54 -18 -68 -13
-163 -92 -224 -186 -57 -88 -37 -253 55 -465 56 -128 47 -125 140 -45 44 38
86 67 92 63 6 -3 8 -3 4 2 -4 4 -3 14 3 21 8 10 5 21 -15 45 -21 25 -26 41
-26 88 0 62 18 91 57 91 26 0 45 -23 72 -83 11 -27 25 -46 30 -43 5 4 13 27
17 53 4 25 13 57 20 71 7 14 10 38 7 54 -3 15 -1 34 5 40 5 7 13 27 16 45 9
39 14 41 125 49 83 6 90 8 95 30 11 44 -6 74 -75 133 -94 79 -136 90 -274 72z"/>
<path d="M5371 8204 c0 -11 3 -14 6 -6 3 7 2 16 -1 19 -3 4 -6 -2 -5 -13z"/>
<path d="M5435 8050 c-3 -5 -1 -10 4 -10 6 0 11 5 11 10 0 6 -2 10 -4 10 -3 0
-8 -4 -11 -10z"/>
<path d="M4988 8044 c-5 -4 -8 -39 -8 -77 0 -83 15 -111 91 -177 90 -77 87
-76 120 -44 16 15 29 30 29 34 0 3 -17 7 -37 8 -68 5 -170 124 -182 212 -3 29
-9 48 -13 44z"/>
<path d="M7793 7713 c9 -2 25 -2 35 0 9 3 1 5 -18 5 -19 0 -27 -2 -17 -5z"/>
<path d="M8088 7703 c7 -3 16 -2 19 1 4 3 -2 6 -13 5 -11 0 -14 -3 -6 -6z"/>
<path d="M6818 7693 c12 -2 32 -2 45 0 12 2 2 4 -23 4 -25 0 -35 -2 -22 -4z"/>
<path d="M8213 7693 c9 -2 25 -2 35 0 9 3 1 5 -18 5 -19 0 -27 -2 -17 -5z"/>
<path d="M8095 7668 c-112 -13 -113 -25 -2 -20 76 3 95 1 106 -12 7 -9 25 -16
39 -16 24 0 23 1 -13 30 -21 17 -41 29 -44 29 -3 -1 -42 -6 -86 -11z"/>
<path d="M5948 7663 c7 -3 16 -2 19 1 4 3 -2 6 -13 5 -11 0 -14 -3 -6 -6z"/>
<path d="M6368 7643 c7 -3 16 -2 19 1 4 3 -2 6 -13 5 -11 0 -14 -3 -6 -6z"/>
<path d="M6143 7623 c9 -2 25 -2 35 0 9 3 1 5 -18 5 -19 0 -27 -2 -17 -5z"/>
<path d="M2198 7603 c12 -2 30 -2 40 0 9 3 -1 5 -23 4 -22 0 -30 -2 -17 -4z"/>
<path d="M2568 7583 c7 -3 16 -2 19 1 4 3 -2 6 -13 5 -11 0 -14 -3 -6 -6z"/>
<path d="M2978 7573 c12 -2 32 -2 45 0 12 2 2 4 -23 4 -25 0 -35 -2 -22 -4z"/>
<path d="M1918 7543 c7 -3 16 -2 19 1 4 3 -2 6 -13 5 -11 0 -14 -3 -6 -6z"/>
<path d="M3418 7533 c7 -3 16 -2 19 1 4 3 -2 6 -13 5 -11 0 -14 -3 -6 -6z"/>
<path d="M5814 7457 c-50 -67 -61 -97 -67 -188 l-6 -86 47 16 c26 9 49 17 51
18 1 1 -2 33 -9 72 -10 62 -9 77 8 140 11 39 17 71 14 71 -4 0 -21 -20 -38
-43z"/>
<path d="M1872 7469 c-13 -5 -30 -16 -38 -24 -14 -13 -13 -15 4 -15 11 0 33 7
48 15 16 8 49 15 74 16 87 2 100 17 15 17 -44 1 -90 -3 -103 -9z"/>
<path d="M1693 7433 c9 -2 23 -2 30 0 6 3 -1 5 -18 5 -16 0 -22 -2 -12 -5z"/>
<path d="M4100 7435 c0 -5 10 -26 21 -45 30 -48 35 -130 14 -213 -9 -38 -15
-70 -14 -71 2 -2 25 -10 51 -18 l46 -15 7 36 c13 74 13 74 49 46 18 -14 36
-25 39 -25 11 0 -39 106 -73 155 -38 55 -139 164 -140 150z"/>
<path d="M6858 7413 c7 -3 16 -2 19 1 4 3 -2 6 -13 5 -11 0 -14 -3 -6 -6z"/>
<path d="M5068 7303 c7 -3 16 -2 19 1 4 3 -2 6 -13 5 -11 0 -14 -3 -6 -6z"/>
<path d="M3018 7293 c7 -3 16 -2 19 1 4 3 -2 6 -13 5 -11 0 -14 -3 -6 -6z"/>
<path d="M4310 6956 c0 -2 8 -10 18 -17 15 -13 16 -12 3 4 -13 16 -21 21 -21
13z"/>
<path d="M5691 5783 c-282 -141 -620 -157 -1101 -52 -74 16 -137 26 -140 21
-4 -4 -58 -70 -120 -147 -63 -77 -166 -200 -230 -273 -63 -73 -139 -161 -168
-195 -72 -83 -142 -203 -142 -242 1 -44 30 -96 66 -117 31 -18 213 -63 295
-73 24 -3 109 -16 189 -30 l145 -25 29 32 c81 93 240 247 308 298 137 104 272
151 438 153 116 1 161 -9 362 -84 86 -33 198 -69 248 -81 l91 -22 27 29 c15
17 42 49 61 73 18 23 38 39 43 36 7 -4 8 -2 4 4 -4 6 69 110 164 234 93 123
170 225 170 228 0 3 -70 26 -156 53 -185 56 -387 135 -464 180 l-55 33 -64
-33z"/>
<path d="M6038 5003 c7 -3 16 -2 19 1 4 3 -2 6 -13 5 -11 0 -14 -3 -6 -6z"/>
<path d="M6083 5003 c9 -2 23 -2 30 0 6 3 -1 5 -18 5 -16 0 -22 -2 -12 -5z"/>
<path d="M6368 4993 c6 -2 18 -2 25 0 6 3 1 5 -13 5 -14 0 -19 -2 -12 -5z"/>
<path d="M3739 4883 c-13 -16 -12 -17 4 -4 16 13 21 21 13 21 -2 0 -10 -8 -17
-17z"/>
<path d="M7102 4855 c0 -16 2 -22 5 -12 2 9 2 23 0 30 -3 6 -5 -1 -5 -18z"/>
<path d="M6663 4675 c0 -22 2 -30 4 -17 2 12 2 30 0 40 -3 9 -5 -1 -4 -23z"/>
<path d="M4039 4623 c-13 -16 -12 -17 4 -4 9 7 17 15 17 17 0 8 -8 3 -21 -13z"/>
<path d="M3955 4570 c-3 -6 1 -7 9 -4 18 7 21 14 7 14 -6 0 -13 -4 -16 -10z"/>
<path d="M6671 4564 c0 -11 3 -14 6 -6 3 7 2 16 -1 19 -3 4 -6 -2 -5 -13z"/>
<path d="M3249 4553 c-13 -16 -12 -17 4 -4 9 7 17 15 17 17 0 8 -8 3 -21 -13z"/>
<path d="M3529 4283 c-13 -16 -12 -17 4 -4 16 13 21 21 13 21 -2 0 -10 -8 -17
-17z"/>
<path d="M6771 4164 c0 -11 3 -14 6 -6 3 7 2 16 -1 19 -3 4 -6 -2 -5 -13z"/>
<path d="M3120 3960 c-8 -5 -10 -10 -5 -10 6 0 17 5 25 10 8 5 11 10 5 10 -5
0 -17 -5 -25 -10z"/>
<path d="M2599 3723 l-24 -28 28 24 c25 23 32 31 24 31 -2 0 -14 -12 -28 -27z"/>
<path d="M0 400 l0 -400 5000 0 5000 0 0 400 0 400 -5000 0 -5000 0 0 -400z
m2192 123 c23 -20 23 -57 1 -74 -15 -11 -16 -11 -5 1 27 31 11 72 -33 83 -19
4 -19 5 -1 6 11 0 28 -6 38 -16z m-69 -8 c-3 -9 -8 -14 -10 -11 -3 3 -2 9 2
15 9 16 15 13 8 -4z m-1760 -114 c22 -61 43 -108 47 -104 4 4 24 56 45 116 21
59 42 107 47 107 11 0 9 -5 -42 -149 -23 -64 -44 -107 -53 -109 -15 -3 -17 0
-67 143 -15 44 -31 88 -36 99 -5 13 -3 17 6 14 8 -2 32 -55 53 -117z m517 89
c0 -23 4 -30 20 -30 11 0 20 -4 20 -10 0 -5 -10 -10 -21 -10 -20 0 -21 -4 -17
-71 3 -55 8 -74 23 -85 23 -17 14 -29 -13 -15 -11 6 -22 25 -26 42 -10 51 -7
209 4 209 6 0 10 -13 10 -30z m515 16 c25 -11 33 -19 29 -30 -7 -19 -5 -19
-40 -1 -36 18 -55 19 -78 2 -28 -21 -9 -45 49 -62 87 -25 108 -74 54 -127 -29
-29 -33 -30 -90 -25 -68 6 -72 8 -64 29 5 13 12 14 40 5 50 -15 100 1 100 33
0 16 -8 28 -25 36 -87 40 -105 51 -108 67 -14 70 53 106 133 73z m105 -16 c0
-25 4 -30 25 -30 16 0 25 -6 25 -15 0 -9 -9 -15 -25 -15 -24 0 -25 -3 -25 -60
0 -55 2 -62 25 -72 14 -6 25 -15 25 -20 0 -18 -31 -20 -55 -4 -24 16 -25 20
-25 131 0 96 3 115 15 115 10 0 15 -10 15 -30z m482 -32 l3 -62 36 32 c20 18
45 32 55 32 14 0 9 -9 -21 -40 l-39 -40 42 -60 c40 -57 41 -60 20 -60 -16 0
-32 14 -53 45 -16 25 -33 45 -37 45 -5 0 -8 -20 -8 -45 0 -38 -3 -45 -20 -45
-19 0 -20 7 -20 130 0 122 1 130 20 130 16 0 19 -8 22 -62z m193 30 c1 -20 -2
-24 -11 -17 -8 7 -14 6 -17 -3 -3 -7 -6 2 -6 20 -1 27 3 33 17 30 11 -2 17
-13 17 -30z m-44 -35 c13 -16 12 -17 -3 -4 -17 13 -22 21 -14 21 2 0 10 -8 17
-17z m-1502 -19 c12 -15 21 -40 21 -55 0 -29 0 -29 -65 -29 -72 0 -83 -12 -44
-51 17 -17 30 -20 65 -16 43 4 59 -5 28 -17 -45 -17 -106 3 -123 41 -45 98 56
206 118 127z m191 16 c17 -11 10 -13 -40 -10 -47 2 -75 -28 -75 -80 0 -55 26
-80 82 -80 27 0 42 -4 38 -10 -9 -15 -78 -12 -102 5 -50 35 -50 135 0 170 24
17 74 20 97 5z m265 -13 c20 -16 28 -35 32 -69 5 -42 3 -50 -25 -78 -41 -41
-83 -41 -124 0 -28 28 -30 36 -25 78 9 82 84 119 142 69z m85 7 c0 -14 2 -14
22 0 24 17 38 20 38 9 0 -5 -14 -16 -30 -25 -29 -17 -30 -19 -30 -93 0 -43 -4
-75 -10 -75 -6 0 -10 40 -10 100 0 60 4 100 10 100 6 0 10 -7 10 -16z m537 1
c30 -21 44 -75 32 -120 -25 -88 -143 -88 -168 0 -20 72 20 135 84 135 17 0 40
-7 52 -15z m198 -5 c0 -10 -8 -14 -27 -12 -58 6 -91 -42 -67 -100 11 -28 36
-40 74 -35 12 1 20 -4 20 -13 0 -19 -48 -25 -85 -10 -63 26 -68 148 -6 179 31
15 91 9 91 -9z m5384 -83 c8 -26 17 -47 21 -47 4 0 13 21 21 47 8 25 20 48 26
50 8 3 4 -21 -11 -64 -13 -38 -29 -68 -36 -68 -7 0 -23 30 -36 68 -15 43 -19
67 -11 64 6 -2 18 -25 26 -50z m639 35 c3 -9 -3 -11 -21 -7 -32 8 -48 -14 -22
-29 34 -20 55 -45 49 -60 -7 -19 -38 -29 -64 -21 -32 10 -23 25 10 19 22 -5
30 -3 30 8 0 8 -13 24 -30 36 -32 24 -37 41 -18 60 16 16 60 12 66 -6z m332
-17 c0 -37 10 -44 30 -20 7 8 17 15 22 15 6 0 5 -7 -2 -15 -12 -14 -11 -29 5
-67 11 -27 -10 -21 -25 7 -7 14 -17 25 -22 25 -4 0 -8 -11 -8 -25 0 -14 -4
-25 -10 -25 -6 0 -10 30 -10 70 0 40 4 70 10 70 6 0 10 -16 10 -35z m580 32
c0 -4 -34 -104 -45 -136 -3 -8 -8 -11 -11 -8 -8 7 38 147 48 147 4 0 8 -2 8
-3z m100 -41 c0 -26 5 -47 13 -50 10 -5 10 -7 0 -12 -7 -3 -13 -12 -13 -20 0
-8 -4 -14 -10 -14 -5 0 -10 7 -10 15 0 10 -10 15 -30 15 -37 0 -37 7 -3 65 36
58 53 58 53 1z m126 19 c42 -64 -27 -155 -70 -93 -31 43 -9 118 34 118 11 0
27 -11 36 -25z m114 15 c0 -5 -11 -10 -25 -10 -32 0 -33 -26 -1 -34 13 -3 27
-13 30 -22 15 -40 -21 -73 -64 -59 -31 10 -24 25 9 19 17 -4 32 -1 36 5 10 17
-14 41 -39 41 -19 0 -21 4 -18 35 4 32 7 35 38 35 19 0 34 -4 34 -10z m120 5
c0 -6 -60 -127 -66 -134 -2 -2 -7 -2 -10 1 -3 3 6 29 20 57 14 28 26 53 26 56
0 3 -13 5 -30 5 -16 0 -30 5 -30 10 0 6 20 10 45 10 25 0 45 -2 45 -5z m100 0
c0 -6 -60 -127 -66 -134 -2 -2 -7 -2 -10 1 -3 3 6 29 20 57 14 28 26 53 26 56
0 3 -13 5 -30 5 -16 0 -30 5 -30 10 0 6 20 10 45 10 25 0 45 -2 45 -5z m84
-11 c20 -20 20 -73 0 -102 -15 -22 -64 -31 -64 -12 0 6 8 10 18 10 18 0 42 18
42 31 0 4 -9 5 -20 2 -26 -7 -50 13 -50 41 0 43 44 61 74 30z m113 4 c15 -19
13 -105 -2 -118 -33 -27 -86 8 -70 46 4 11 7 30 6 43 -4 36 44 57 66 29z m93
-48 c0 -47 3 -60 15 -60 8 0 15 -4 15 -10 0 -5 -18 -10 -40 -10 -22 0 -40 5
-40 10 0 6 7 10 15 10 11 0 15 12 15 45 0 38 -2 43 -17 38 -16 -6 -16 -4 1 15
29 34 36 27 36 -38z m-2062 23 c12 -12 13 -18 4 -21 -14 -4 -17 -62 -2 -62 6
0 10 -5 10 -11 0 -6 -8 -9 -17 -7 -25 5 -40 118 -16 118 2 0 12 -8 21 -17z
m360 0 c12 -12 13 -18 4 -21 -14 -4 -17 -62 -2 -62 6 0 10 -5 10 -11 0 -6 -8
-9 -17 -7 -25 5 -40 118 -16 118 2 0 12 -8 21 -17z m-528 -22 c15 -29 13 -31
-26 -31 -24 0 -34 -4 -31 -12 2 -7 16 -13 30 -13 15 1 27 -3 27 -7 0 -16 -31
-21 -56 -10 -27 13 -34 58 -12 80 18 18 56 14 68 -7z m107 4 c2 -6 -9 -11 -24
-10 -23 0 -28 -4 -28 -25 0 -21 5 -25 28 -25 15 1 26 -4 24 -10 -5 -15 -46
-18 -63 -5 -17 15 -18 62 -2 78 15 15 60 12 65 -3z m177 -1 c9 -8 16 -24 16
-34 0 -22 -26 -50 -46 -50 -32 0 -54 21 -54 50 0 45 52 66 84 34z m56 5 c0 -8
5 -7 15 1 24 20 29 4 6 -19 -12 -12 -21 -32 -21 -46 0 -14 -4 -25 -10 -25 -5
0 -10 23 -10 50 0 28 5 50 10 50 6 0 10 -5 10 -11z m304 -5 c9 -8 16 -24 16
-34 0 -22 -26 -50 -46 -50 -32 0 -54 21 -54 50 0 45 52 66 84 34z m113 1 c2
-6 -9 -11 -24 -10 -23 0 -28 -4 -28 -25 0 -21 5 -25 28 -25 15 1 26 -4 24 -10
-5 -15 -46 -18 -63 -5 -20 17 -18 67 4 79 20 13 54 10 59 -4z m250 0 c2 -6 -9
-11 -24 -10 -23 0 -28 -4 -28 -25 0 -21 5 -25 28 -25 15 1 27 -3 27 -7 0 -16
-31 -21 -56 -10 -27 13 -34 58 -12 80 15 15 60 12 65 -3z m107 -1 c9 -8 16
-24 16 -34 0 -22 -26 -50 -46 -50 -32 0 -54 21 -54 50 0 45 52 66 84 34z m56
6 c0 -6 8 -5 20 2 15 9 22 10 31 1 8 -8 16 -9 29 -1 32 20 50 3 50 -47 0 -25
-4 -45 -10 -45 -5 0 -10 18 -10 41 0 33 -3 40 -17 37 -13 -2 -19 -14 -21 -41
-4 -47 -22 -49 -22 -3 0 19 -5 38 -10 41 -18 11 -40 -15 -40 -46 0 -16 -4 -29
-10 -29 -5 0 -10 23 -10 50 0 28 5 50 10 50 6 0 10 -5 10 -10z m-270 -80 c0
-5 -4 -10 -10 -10 -5 0 -10 5 -10 10 0 6 5 10 10 10 6 0 10 -4 10 -10z"/>
<path d="M2150 500 c0 -5 5 -10 10 -10 6 0 10 5 10 10 0 6 -4 10 -10 10 -5 0
-10 -4 -10 -10z"/>
<path d="M536 418 c-28 -39 -21 -48 39 -48 59 0 67 9 45 51 -15 27 -64 25 -84
-3z"/>
<path d="M986 424 c-50 -50 -21 -144 44 -144 48 0 80 50 66 104 -13 53 -75 75
-110 40z"/>
<path d="M1616 408 c-32 -46 -8 -118 39 -118 28 0 55 34 55 70 0 36 -27 70
-55 70 -13 0 -31 -10 -39 -22z"/>
<path d="M8897 350 c-18 -29 -18 -30 2 -30 17 0 21 6 21 30 0 17 -1 30 -3 30
-1 0 -11 -13 -20 -30z"/>
<path d="M9012 378 c-17 -17 -15 -63 4 -79 14 -11 18 -10 30 6 17 22 18 40 4
66 -12 22 -21 24 -38 7z"/>
<path d="M9434 375 c-4 -9 -2 -21 4 -27 15 -15 44 -1 40 19 -4 23 -36 29 -44
8z"/>
<path d="M9552 374 c2 -11 11 -20 22 -22 13 -3 17 1 14 14 -2 11 -11 20 -22
22 -13 3 -17 -1 -14 -14z"/>
<path d="M9544 325 c-7 -18 3 -35 22 -35 20 0 30 30 13 41 -20 12 -29 11 -35
-6z"/>
<path d="M7408 343 c6 -2 18 -2 25 0 6 3 1 5 -13 5 -14 0 -19 -2 -12 -5z"/>
<path d="M7684 336 c-10 -26 4 -48 28 -44 17 2 23 10 23 28 0 18 -6 26 -23 28
-13 2 -25 -3 -28 -12z"/>
<path d="M8044 336 c-10 -26 4 -48 28 -44 17 2 23 10 23 28 0 18 -6 26 -23 28
-13 2 -25 -3 -28 -12z"/>
<path d="M8514 336 c-10 -26 4 -48 28 -44 17 2 23 10 23 28 0 18 -6 26 -23 28
-13 2 -25 -3 -28 -12z"/>
</g>
</svg>
