<?xml version="1.0" standalone="no"?>
<!DOCTYPE svg PUBLIC "-//W3C//DTD SVG 20010904//EN"
 "http://www.w3.org/TR/2001/REC-SVG-20010904/DTD/svg10.dtd">
<svg version="1.0" xmlns="http://www.w3.org/2000/svg"
 width="512.000000pt" height="512.000000pt" viewBox="0 0 512.000000 512.000000"
 preserveAspectRatio="xMidYMid meet">

<g transform="translate(0.000000,512.000000) scale(0.100000,-0.100000)"
fill="#000000" stroke="none">
<path d="M590 4261 c-104 -32 -160 -106 -160 -211 0 -84 53 -161 132 -194 33
-14 197 -16 1466 -16 l1428 0 53 26 c127 64 155 219 59 328 -71 81 39 76
-1547 75 -773 0 -1417 -4 -1431 -8z"/>
<path d="M539 2747 c-68 -36 -103 -93 -107 -175 -4 -83 21 -138 87 -186 l43
-31 1997 0 1997 0 37 25 c21 14 50 43 65 64 24 35 27 49 27 117 0 71 -3 81
-31 120 -18 24 -51 54 -75 66 l-42 23 -1977 0 -1977 0 -44 -23z"/>
<path d="M560 1264 c-78 -34 -130 -111 -130 -194 0 -88 38 -152 115 -193 l40
-22 1015 0 1015 0 45 25 c67 38 103 96 108 174 5 71 -14 120 -65 168 -64 61
-8 58 -1105 58 -874 -1 -1008 -3 -1038 -16z"/>
</g>
</svg>
